<svg width="26" height="26" viewBox="0 0 26 26" fill="none" xmlns="http://www.w3.org/2000/svg">
<g id="Iconly/Curved/Add User">
<g id="Add User">
<path id="Stroke 1" fill-rule="evenodd" clip-rule="evenodd" d="M10.7492 23.6257C6.61739 23.6257 3.08789 23.0006 3.08789 20.4981C3.08789 17.9956 6.59464 15.7195 10.7492 15.7195C14.8811 15.7195 18.4106 17.9739 18.4106 20.4753C18.4106 22.9768 14.9038 23.6257 10.7492 23.6257Z" stroke="#1B164A" stroke-width="2" stroke-linecap="round" stroke-linejoin="round"/>
<path id="Stroke 3" fill-rule="evenodd" clip-rule="evenodd" d="M10.7492 12.1507C13.4607 12.1507 15.6599 9.95156 15.6599 7.23997C15.6599 4.52731 13.4607 2.32922 10.7492 2.32922C8.03758 2.32922 5.83841 4.52731 5.83841 7.23997C5.82866 9.94181 8.01266 12.141 10.7145 12.1507H10.7492Z" stroke="#1B164A" stroke-width="2" stroke-linecap="round" stroke-linejoin="round"/>
<path id="Stroke 5" d="M20.7257 8.80664V13.1508" stroke="#1B164A" stroke-width="2" stroke-linecap="round" stroke-linejoin="round"/>
<path id="Stroke 7" d="M22.9426 10.9784H18.5117" stroke="#1B164A" stroke-width="2" stroke-linecap="round" stroke-linejoin="round"/>
</g>
</g>
</svg>
