<svg width="21" height="24" viewBox="0 0 21 24"  fill="none" xmlns="http://www.w3.org/2000/svg">
<path d="M15.0303 0.439941C15.4275 0.439941 15.7558 0.737406 15.8077 1.12335L15.8149 1.23064L15.8149 2.12438C19.0371 2.34531 21.0101 4.42801 20.9999 7.7905V17.411C20.9999 20.9751 18.7847 23.1066 15.2241 23.1066H6.37573C2.81943 23.1066 0.599976 20.9388 0.599976 17.3312V7.7905C0.599976 4.42922 2.57936 2.34595 5.79454 2.12447L5.79464 1.23064C5.79464 0.793949 6.14592 0.439941 6.57925 0.439941C6.97647 0.439941 7.30475 0.737406 7.3567 1.12335L7.36386 1.23064L7.36371 2.10481H14.2453L14.2457 1.23064C14.2457 0.793949 14.5969 0.439941 15.0303 0.439941ZM19.4303 9.82734H2.16851L2.1692 17.3312C2.1692 19.9663 3.57969 21.429 6.11814 21.5206L6.37573 21.5252H15.2241C17.9338 21.5252 19.4307 20.0849 19.4307 17.411L19.4303 9.82734ZM15.4567 16.4608C15.89 16.4608 16.2413 16.8148 16.2413 17.2515C16.2413 17.6518 15.9461 17.9826 15.5632 18.0349L15.4567 18.0422C15.0137 18.0422 14.6624 17.6881 14.6624 17.2515C14.6624 16.8512 14.9576 16.5203 15.3405 16.468L15.4567 16.4608ZM10.8145 16.4608C11.2478 16.4608 11.5991 16.8148 11.5991 17.2515C11.5991 17.6518 11.3039 17.9826 10.9209 18.0349L10.8145 18.0422C10.3714 18.0422 10.0202 17.6881 10.0202 17.2515C10.0202 16.8512 10.3153 16.5203 10.6983 16.468L10.8145 16.4608ZM6.16252 16.4608C6.59585 16.4608 6.94713 16.8148 6.94713 17.2515C6.94713 17.6518 6.65195 17.9826 6.26898 18.0349L6.15282 18.0422C5.7195 18.0422 5.36821 17.6881 5.36821 17.2515C5.36821 16.8512 5.66339 16.5203 6.04636 16.468L6.16252 16.4608ZM15.4567 12.3633C15.89 12.3633 16.2413 12.7173 16.2413 13.154C16.2413 13.5543 15.9461 13.8852 15.5632 13.9375L15.4567 13.9447C15.0137 13.9447 14.6624 13.5907 14.6624 13.154C14.6624 12.7537 14.9576 12.4229 15.3405 12.3706L15.4567 12.3633ZM10.8145 12.3633C11.2478 12.3633 11.5991 12.7173 11.5991 13.154C11.5991 13.5543 11.3039 13.8852 10.9209 13.9375L10.8145 13.9447C10.3714 13.9447 10.0202 13.5907 10.0202 13.154C10.0202 12.7537 10.3153 12.4229 10.6983 12.3706L10.8145 12.3633ZM6.16252 12.3633C6.59585 12.3633 6.94713 12.7173 6.94713 13.154C6.94713 13.5543 6.65195 13.8852 6.26898 13.9375L6.15282 13.9447C5.7195 13.9447 5.36821 13.5907 5.36821 13.154C5.36821 12.7537 5.66339 12.4229 6.04636 12.3706L6.16252 12.3633ZM14.2453 3.68581H7.36371L7.36386 4.69999C7.36386 5.13668 7.01258 5.49069 6.57925 5.49069C6.18203 5.49069 5.85376 5.19322 5.8018 4.80728L5.79464 4.69999L5.79353 3.70985C3.45472 3.9061 2.1692 5.32076 2.1692 7.7905L2.16851 8.24521H19.4303L19.4307 7.78808C19.4382 5.31639 18.1593 3.90466 15.8149 3.7096L15.8149 4.69999C15.8149 5.13668 15.4636 5.49069 15.0303 5.49069C14.6331 5.49069 14.3048 5.19322 14.2528 4.80728L14.2457 4.69999L14.2453 3.68581Z" fill="#1B164A"/>
</svg>
