<svg width="26" height="26" viewBox="0 0 26 26" fill="none" xmlns="http://www.w3.org/2000/svg">
<g id="Iconly/Curved/Profile">
<g id="Profile">
<path id="Stroke 1" fill-rule="evenodd" clip-rule="evenodd" d="M12.8314 23.4671C8.83196 23.4671 5.4165 22.8447 5.4165 20.3522C5.4165 17.8597 8.81029 15.5588 12.8314 15.5588C16.8309 15.5588 20.2464 17.8374 20.2464 20.3299C20.2464 22.8214 16.8526 23.4671 12.8314 23.4671Z" stroke="#FF0000" stroke-width="2" stroke-linecap="round" stroke-linejoin="round"/>
<path id="Stroke 3" fill-rule="evenodd" clip-rule="evenodd" d="M12.8237 12.1048C15.4483 12.1048 17.5756 9.97754 17.5756 7.35292C17.5756 4.72829 15.4483 2.60004 12.8237 2.60004C10.1991 2.60004 8.07083 4.72829 8.07083 7.35292C8.06196 9.96867 10.1745 12.0959 12.7902 12.1048C12.802 12.1048 12.8129 12.1048 12.8237 12.1048Z" stroke="#FF0000" stroke-width="2" stroke-linecap="round" stroke-linejoin="round"/>
</g>
<line id="Line 48" x1="23" y1="7" x2="25" y2="7" stroke="#FF0000" stroke-width="2" stroke-linecap="round" stroke-linejoin="round"/>
</g>
</svg>
