<svg width="40" height="40" viewBox="0 0 40 40" fill="none" xmlns="http://www.w3.org/2000/svg">
<g id="Iconly/Curved/Image 2">
<g id="Image 2">
<path id="Stroke 1" fill-rule="evenodd" clip-rule="evenodd" d="M4.58325 20.0002C4.58325 31.5618 8.43825 35.4168 19.9999 35.4168C31.5616 35.4168 35.4166 31.5618 35.4166 20.0002C35.4166 8.4385 31.5616 4.5835 19.9999 4.5835C8.43825 4.5835 4.58325 8.4385 4.58325 20.0002Z" stroke="#1B164A" stroke-width="1.5" stroke-linecap="round" stroke-linejoin="round"/>
<path id="Stroke 3" fill-rule="evenodd" clip-rule="evenodd" d="M17.6642 14.6403C17.6642 16.262 16.3509 17.5753 14.7292 17.5753C13.1092 17.5753 11.7942 16.262 11.7942 14.6403C11.7942 13.0187 13.1092 11.7053 14.7292 11.7053C16.3509 11.7053 17.6642 13.0187 17.6642 14.6403Z" stroke="#1B164A" stroke-width="1.5" stroke-linecap="round" stroke-linejoin="round"/>
<path id="Stroke 5" d="M35.2002 24.4443C33.7318 22.9343 31.6552 19.8827 27.8402 19.8827C24.0252 19.8827 23.9418 26.6127 20.0485 26.6127C16.1535 26.6127 14.5851 24.3277 12.0468 25.521C9.51015 26.7127 7.44348 31.456 7.44348 31.456" stroke="#1B164A" stroke-width="1.5" stroke-linecap="round" stroke-linejoin="round"/>
</g>
</g>
</svg>
