<svg cursor="pointer" width="35" height="34" viewBox="0 0 35 34" fill="none" xmlns="http://www.w3.org/2000/svg">
<g id="Iconly/Curved/3 User">
<g id="3 User">
<path id="Stroke 1" fill-rule="evenodd" clip-rule="evenodd" d="M17.4599 28.8549C12.7364 28.8549 8.70117 28.1607 8.70117 25.3812C8.70117 22.6017 12.7101 20.1821 17.4599 20.1821C22.1835 20.1821 26.2187 22.5791 26.2187 25.3572C26.2187 28.1352 22.2097 28.8549 17.4599 28.8549Z" stroke="#1B164A" stroke-width="2" stroke-linecap="round" stroke-linejoin="round"/>
<path id="Stroke 3" fill-rule="evenodd" clip-rule="evenodd" d="M17.4598 16.219C20.5602 16.219 23.0744 13.7781 23.0744 10.7662C23.0744 7.75441 20.5602 5.31207 17.4598 5.31207C14.3594 5.31207 11.8452 7.75441 11.8452 10.7662C11.8365 13.7667 14.3302 16.2091 17.4204 16.219H17.4598Z" stroke="#1B164A" stroke-width="2" stroke-linecap="round" stroke-linejoin="round"/>
<path id="Stroke 5" d="M26.7782 14.7214C28.5822 14.2525 29.9122 12.6545 29.9122 10.7519C29.9122 8.76717 28.464 7.10967 26.5361 6.72717" stroke="#1B164A" stroke-width="2" stroke-linecap="round" stroke-linejoin="round"/>
<path id="Stroke 7" d="M27.6255 19.1879C30.1834 19.1879 32.368 20.8723 32.368 22.3768C32.368 23.2623 31.614 24.227 30.4707 24.4877" stroke="#1B164A" stroke-width="2" stroke-linecap="round" stroke-linejoin="round"/>
<path id="Stroke 9" d="M8.14323 14.7214C6.33781 14.2525 5.00781 12.6545 5.00781 10.7519C5.00781 8.76717 6.4574 7.10967 8.38385 6.72717" stroke="#1B164A" stroke-width="2" stroke-linecap="round" stroke-linejoin="round"/>
<path id="Stroke 11" d="M7.29426 19.1879C4.73634 19.1879 2.55176 20.8723 2.55176 22.3768C2.55176 23.2623 3.30572 24.227 4.45051 24.4877" stroke="#1B164A" stroke-width="2" stroke-linecap="round" stroke-linejoin="round"/>
</g>
</g>
</svg>
